# xmcd
#
# Track frame offsets:
#	150
#	13370
#	22135
#	38054
#	48658
#	61360
#	75534
#	93755
#	112293
#	131245
#
# Disc length: 2022 seconds
#
# Revision: 1
# Processed by: cddbd v1.5.2PL0 Copyright (c) Steve Scherf et al.
# Submitted via: audiograbber 1.83.01
#
DISCID=8b07e40a
DTITLE=Chrome - Red Exposure
DYEAR=1980
DGENRE=Rock
TTITLE0=New Age
TTITLE1=Rm. 101
TTITLE2=Eyes on Mars
TTITLE3=Jonestown
TTITLE4=Animal
TTITLE5=Static Gravity
TTITLE6=Eyes in the Center
TTITLE7=Electric Chair
TTITLE8=Night of the Earth
TTITLE9=Isolation
EXTD=
EXTT0=
EXTT1=
EXTT2=
EXTT3=
EXTT4=
EXTT5=
EXTT6=
EXTT7=
EXTT8=
EXTT9=
PLAYORDER=
